<svg width="493.356" height="493.356" xmlns="http://www.w3.org/2000/svg">

 <g>
  <title>background</title>
  <rect fill="none" id="canvas_background" height="402" width="582" y="-1" x="-1"/>
 </g>
 <g>
  <title>Layer 1</title>
  <g fill="#959595" id="svg_1">
   <path fill="#959595" id="svg_2" d="m490.498,239.278l-109.632,-99.929c-3.046,-2.474 -6.376,-2.95 -9.993,-1.427c-3.613,1.525 -5.427,4.283 -5.427,8.282l0,63.954l-356.31,0c-2.666,0 -4.856,0.855 -6.567,2.568c-1.71,1.712 -2.569,3.902 -2.569,6.566l0,54.816c0,2.663 0.855,4.853 2.568,6.563c1.715,1.712 3.905,2.567 6.567,2.567l356.313,0l0,63.953c0,3.812 1.817,6.57 5.428,8.278c3.62,1.529 6.95,0.951 9.996,-1.708l109.632,-101.077c1.903,-1.902 2.852,-4.182 2.852,-6.849c0,-2.468 -0.955,-4.654 -2.858,-6.557z"/>
  </g>
  <g id="svg_3"/>
  <g id="svg_4"/>
  <g id="svg_5"/>
  <g id="svg_6"/>
  <g id="svg_7"/>
  <g id="svg_8"/>
  <g id="svg_9"/>
  <g id="svg_10"/>
  <g id="svg_11"/>
  <g id="svg_12"/>
  <g id="svg_13"/>
  <g id="svg_14"/>
  <g id="svg_15"/>
  <g id="svg_16"/>
  <g id="svg_17"/>
 </g>
</svg>